<svg width="33" height="49" viewBox="0 0 33 49" fill="none" xmlns="http://www.w3.org/2000/svg">
<path fill-rule="evenodd" clip-rule="evenodd" d="M17.3113 14.508C18.0047 15.439 19.2427 16.1217 21.2946 15.8469C24.8975 15.3644 27.6855 16.4456 29.3582 18.5167C30.9898 20.5368 31.3643 23.2642 30.6618 25.7102C29.9519 28.1819 28.1264 30.4474 25.2582 31.583C22.3942 32.717 18.6671 32.6599 14.216 30.8717C10.3494 29.3183 8.12582 29.5701 6.92916 30.2703C5.76165 30.9534 5.07789 32.3612 5.00606 34.3528C4.93489 36.3258 5.49503 38.5733 6.45802 40.3899C7.45483 42.2703 8.67633 43.3246 9.69565 43.5294L9.10483 46.4706C6.76488 46.0006 4.95819 43.9658 3.80743 41.795C2.62285 39.5604 1.91602 36.7947 2.00801 34.2447C2.09932 31.7132 3.00882 29.0882 5.41418 27.6809C7.79039 26.2906 11.1193 26.3945 15.3343 28.0879C19.2814 29.6736 22.189 29.5716 24.1539 28.7937C26.1147 28.0173 27.3125 26.5041 27.7784 24.882C28.2516 23.2343 27.9543 21.5531 27.0244 20.4017C26.1357 19.3013 24.4726 18.4481 21.6928 18.8203C18.7058 19.2203 16.3325 18.216 14.9054 16.3002C13.5292 14.4527 13.1937 11.9741 13.7342 9.65477C14.28 7.31217 15.7384 5.01641 18.1216 3.4575C20.5164 1.89101 23.7478 1.12943 27.744 1.67673L27.3369 4.64898C23.9426 4.1841 21.4632 4.85647 19.7639 5.96808C18.0529 7.08727 17.0338 8.71377 16.6559 10.3356C16.2725 11.9807 16.5669 13.5087 17.3113 14.508Z" fill="black" stroke="black" stroke-width="3"/>
</svg>
